<svg width="16" height="16" viewBox="0 0 16 16" fill="none" xmlns="http://www.w3.org/2000/svg">
    <path fill-rule="evenodd" clip-rule="evenodd" d="M10.858 7.606s-.726.485-1.392.606c-.665.121-1.21.121-1.573.121S6.441 8.152 6.14 8.03c-.303-.12-1.029-.424-1.029-.424l-.12-.06a6.783 6.783 0 0 1-2.186-1.942.594.594 0 0 1-.066-.206s-.048-.337-.41-.337c-.293 0-.326.313-.328.335-.005.24.07.482.224.684.113.142.29.36.517.606l-.442.824c-.1.18-.025.412.152.515.176.103.403.026.504-.155l.34-.644c.278.245.593.49.959.735l-.429 1.133a.383.383 0 0 0 .214.49.37.37 0 0 0 .48-.22l.39-1.03a6.25 6.25 0 0 0 1.034.425l-.277 1.365a.39.39 0 0 0 .29.451c.202.039.39-.09.441-.296l.278-1.34c.302.065.618.103.958.13v1.557a.37.37 0 0 0 .366.374.37.37 0 0 0 .365-.373V9.068c.328-.013.656-.064.959-.116l.264 1.327c.038.206.24.335.43.296.201-.039.327-.245.29-.45l-.278-1.366a6.25 6.25 0 0 0 1.034-.425l.39 1.018c.076.193.29.283.48.218a.395.395 0 0 0 .214-.489l-.428-1.12c.365-.232.68-.49.958-.722l.328.631c.1.18.315.245.504.155a.396.396 0 0 0 .151-.515l-.428-.799a7.93 7.93 0 0 0 .542-.63c.158-.21.233-.46.226-.708-.007-.086-.05-.373-.359-.373-.424 0-.397.376-.397.376l-.002.001a.317.317 0 0 1-.073.24 7.333 7.333 0 0 1-2.283 1.97" fill="#3E3E3E"/>
</svg>
