<svg width="16" height="16" viewBox="0 0 16 16" fill="none" xmlns="http://www.w3.org/2000/svg">
    <path fill-rule="evenodd" clip-rule="evenodd" d="M13.26 7.568c.226.26.403.491.516.641.303.423.303 1.01-.025 1.432-.53.736-2.484 3.136-5.674 3.177h-.176c-3.19-.04-5.144-2.44-5.674-3.177a1.243 1.243 0 0 1 0-1.432c.113-.164.303-.395.542-.668l-.429-.846c-.088-.204-.025-.436.152-.545a.369.369 0 0 1 .504.164l.328.668c.277-.246.592-.518.958-.764l-.429-1.186c-.063-.205.026-.437.215-.518a.375.375 0 0 1 .479.231l.39 1.078a6.053 6.053 0 0 1 1.035-.45l-.278-1.446c-.038-.218.088-.436.29-.477.19-.04.391.095.429.314l.265 1.404c.302-.054.63-.109.958-.123v-1.65c0-.218.164-.395.366-.395.201 0 .365.177.365.395v1.65c.34.028.656.069.958.137l.278-1.418c.05-.219.24-.355.441-.314.202.055.328.26.29.477l-.277 1.446c.365.122.718.272 1.034.45l.39-1.091c.076-.205.29-.314.48-.232.189.082.29.314.214.518l-.429 1.2c.366.26.681.518.958.777l.34-.681c.102-.191.329-.273.505-.164.177.11.252.355.152.545l-.442.873zM2.831 8.7c-.1.123-.1.314 0 .45.315.436 1.084 1.39 2.282 2.073a4.074 4.074 0 0 1-.706-2.305c0-.859.265-1.663.706-2.304A7.487 7.487 0 0 0 2.832 8.7zm5.182 3.327h.088c1.539-.054 2.774-1.418 2.774-3.095 0-1.677-1.223-3.041-2.761-3.096h-.202c-1.538.055-2.76 1.419-2.76 3.096s1.235 3.04 2.773 3.095h.088zm2.9-.79a7.488 7.488 0 0 0 2.282-2.087.392.392 0 0 0 0-.436 7.487 7.487 0 0 0-2.282-2.087c.441.641.706 1.446.706 2.305 0 .859-.265 1.663-.706 2.304zM7.575 7.081c.212-.099.437-.155.675-.155.963 0 1.75.884 1.75 1.964s-.787 1.964-1.75 1.964S6.5 9.97 6.5 8.89c0-.267.05-.519.138-.757a.661.661 0 0 0 .6.392c.374 0 .687-.336.687-.771 0-.28-.138-.547-.35-.673z" fill="#3E3E3E"/>
</svg>
